<?xml version="1.0" encoding="UTF-8"?>
<svg width="128" height="128" viewBox="0 0 128 128" fill="none" xmlns="http://www.w3.org/2000/svg">
  <defs>
    <linearGradient id="g1" x1="0" y1="0" x2="128" y2="128" gradientUnits="userSpaceOnUse">
      <stop stop-color="hsl(142, 76%, 36%)"/>
      <stop offset="1" stop-color="hsl(199, 89%, 48%)"/>
    </linearGradient>
  </defs>
  <rect x="8" y="8" width="112" height="112" rx="24" fill="url(#g1)"/>
  <g filter="url(#shadow)">
    <path d="M88 48c0 22-16 40-36 40-8 0-14-3-18-8 18-2 30-14 32-28-8 6-18 8-28 6 4-12 16-22 30-22 8 0 14 4 20 12z" fill="white" fill-opacity="0.92"/>
  </g>
  <circle cx="92" cy="88" r="12" fill="white" fill-opacity="0.9"/>
  <path d="M92 82v6l4 4" stroke="hsl(199, 89%, 48%)" stroke-width="2.5" stroke-linecap="round" stroke-linejoin="round"/>
  <defs>
    <filter id="shadow" x="0" y="0" width="128" height="128" filterUnits="userSpaceOnUse" color-interpolation-filters="sRGB">
      <feDropShadow dx="0" dy="2" stdDeviation="3" flood-color="rgba(0,0,0,0.15)"/>
    </filter>
  </defs>
</svg>
